<?xml version="1.0" encoding="utf-8"?>
<!-- Generator: Adobe Illustrator 27.2.0, SVG Export Plug-In . SVG Version: 6.00 Build 0)  -->
<!DOCTYPE svg PUBLIC "-//W3C//DTD SVG 1.1//EN" "http://www.w3.org/Graphics/SVG/1.1/DTD/svg11.dtd" [
	<!ENTITY ns_extend "http://ns.adobe.com/Extensibility/1.0/">
	<!ENTITY ns_ai "http://ns.adobe.com/AdobeIllustrator/10.0/">
	<!ENTITY ns_graphs "http://ns.adobe.com/Graphs/1.0/">
	<!ENTITY ns_vars "http://ns.adobe.com/Variables/1.0/">
	<!ENTITY ns_imrep "http://ns.adobe.com/ImageReplacement/1.0/">
	<!ENTITY ns_sfw "http://ns.adobe.com/SaveForWeb/1.0/">
	<!ENTITY ns_custom "http://ns.adobe.com/GenericCustomNamespace/1.0/">
	<!ENTITY ns_adobe_xpath "http://ns.adobe.com/XPath/1.0/">
]>
<svg version="1.1" id="Слой_1" xmlns:x="&ns_extend;" xmlns:i="&ns_ai;" xmlns:graph="&ns_graphs;"
	 xmlns="http://www.w3.org/2000/svg" xmlns:xlink="http://www.w3.org/1999/xlink" x="0px" y="0px" width="1765.8px"
	 height="363.1px" viewBox="0 0 1765.8 363.1" style="enable-background:new 0 0 1765.8 363.1;" xml:space="preserve">
<style type="text/css">
	.st0{fill:none;}
</style>
<metadata>
	<sfw  xmlns="&ns_sfw;">
		<slices></slices>
		<sliceSourceBounds  bottomLeftOrigin="true" height="16383" width="1765.8" x="-63.1" y="-8613"></sliceSourceBounds>
		<optimizationSettings>
			<targetSettings  fileFormat="PNG24Format" targetSettingsID="0">
				<PNG24Format  filtered="false" interlaced="false" matteColor="#FFFFFF" noMatteColor="false" transparency="true">
					</PNG24Format>
			</targetSettings>
		</optimizationSettings>
	</sfw>
</metadata>
<g>
	<path d="M149.4,150.9v-0.3c10.1-1,28.1-2.9,28.1-24.2c0-11.3-11.6-21.7-32.4-21.7l-42.6,0v2.2l13.3,0l0,93.6h-13.3v2.2l47.8,0
		c13.1,0,29.9-7.5,29.9-26.3C180.1,158.7,164.6,152.2,149.4,150.9 M130,106.9h7.3c20.4,0,26,13.5,26,20.9c0,18.9-11.3,21.7-24,21.7
		H130L130,106.9z M141.7,200.5H130l0-48.7h7.5c15.9,0,26.7,7.8,26.7,23.4C164.2,191.4,156.4,200.5,141.7,200.5"/>
	<path d="M511.4,200.5h-19.1l0-46.5h10.3c14.7,0,16.1,6.4,16.1,17h2.2l0-37h-2.2c0,9.1-1.4,17.8-15.9,17.8h-10.5l0-44.8l21.9,0
		c14.8,0,25.4,5.4,25.4,21.4h2.2l-1.7-23.7l-76.5,0l-31.9,0v2.2h6.6c6.1,0,7.3,1.8,7.3,7.5l0,62.9h-0.3l-52.8-72.7l-29.3,0v2.2
		l13.4,0l0,85.6c0,6.7-2.2,7.9-8.7,7.9h-4.7h-0.1h-3.4h-6.2c-2.4,0-6.3-0.6-7.3-8.8l-2-16.2c-2.1-18.4-10.6-21.9-26.7-23.3V152
		c10.2-1.3,29.9-5.7,29.9-22.7c0-21-17.5-24.6-33.5-24.6l-44.9,0v2.2l14,0l0,93.6h-5.6h-8.3l-11.3,0l-33.2-95.8h-3.1l-29.3,87.6
		c-2.7,7.8-4.5,8.2-8.8,8.2h-4.5v2.2l28.8,0v-2.2h-7.3c-4.5,0-6.1-1.5-6.1-3.5c0-2.4,1.1-5.7,2.1-8.5l5.7-17.5l29.9,0l10.1,29.5
		h-13.7v2.2l40.6,0h8.3l36.1,0v-2.2h-16.2l0-47.1l11.1,0c15.8,0,18.3,7.9,19.3,16.7l1,8.4c2,16,2.9,24.2,20,24.2h11.1h1.6l31.8,0
		v-2.2h-5.6c-6.4,0-8.7-1.3-8.7-7.9l0-81.2h0.3l66.3,91.3h2.4l0-88.3c0-5.7,1.1-7.5,7.3-7.5h8.6l14.3,0l0,93.6h-12.3v2.2l81.4,0
		v-28.5H545C545,197.8,534.1,200.5,511.4,200.5 M203.2,168.7l13.7-42.2h0.3l14.4,42.2L203.2,168.7z M306.4,151.2h-9v-44.3l11.5,0
		c19.8,0,23.6,11.3,23.6,22.4C332.5,145.5,322.9,151.2,306.4,151.2"/>
	<path d="M590,144.8c-23.2-4.2-27.9-7-27.9-19.5c0-12.8,8.4-20.6,20.2-20.6c18.7,0,27.4,14.3,28.6,30.2h2.2v-29.2l-2.2,0
		c-0.4,1.8-0.8,5.3-4.1,5.3c-4.7,0-10.2-8.5-24.6-8.5c-15.6,0-26.1,11.6-26.1,27.4c0,23.4,10.3,27,32.3,30.5
		c16.1,2.5,23.6,6.8,23.6,21.3c0,12.5-9.6,21-23,21c-16.8,0-30.6-11-30.6-34.4h-2.2l0,35.2h2.2c0-2.4,0.1-5.8,3.5-5.8
		c5.2,0,12.6,7.2,26.5,7.2c20.2,0,30.3-13.6,30.3-31.9C618.7,155,610.4,148.4,590,144.8"/>
</g>
<g>
	<path d="M195.8,260.7v-16h2v16H195.8z"/>
	<path d="M207.7,248.5v12.2h-2v-16h1.7l9.8,12.5v-12.5h2v16h-1.8L207.7,248.5z"/>
	<path d="M238.6,246.5h-5.5v14.2h-2v-14.2h-5.5v-1.8h13.1V246.5z"/>
	<path d="M255.8,258.9v1.8h-10.8v-16h10.6v1.8H247v5.2h7.5v1.7H247v5.5H255.8z"/>
	<path d="M262.6,260.7v-16h6.8c0.7,0,1.4,0.1,1.9,0.4c0.6,0.3,1.1,0.7,1.5,1.2s0.8,1,1,1.6c0.2,0.6,0.4,1.2,0.4,1.9
		c0,0.7-0.1,1.4-0.4,2.1c-0.3,0.7-0.7,1.2-1.2,1.7c-0.5,0.5-1.1,0.8-1.8,1l3.9,6.1h-2.3l-3.6-5.7h-4.2v5.7H262.6z M264.6,253.2h4.8
		c0.6,0,1-0.2,1.5-0.5c0.4-0.3,0.7-0.7,1-1.2c0.2-0.5,0.3-1.1,0.3-1.6c0-0.6-0.1-1.2-0.4-1.7c-0.3-0.5-0.6-0.9-1.1-1.2
		c-0.4-0.3-0.9-0.5-1.4-0.5h-4.7V253.2z"/>
	<path d="M283.5,248.5v12.2h-2v-16h1.7l9.8,12.5v-12.5h2v16h-1.8L283.5,248.5z"/>
	<path d="M307.7,244.7h1.7l6.5,16h-2.2l-1.8-4.7h-6.9l-1.8,4.7h-2.2L307.7,244.7z M311.3,254.4l-2.8-7.4l-2.8,7.4H311.3z"/>
	<path d="M332.1,246.5h-5.5v14.2h-2v-14.2H319v-1.8h13.1V246.5z"/>
	<path d="M338.4,260.7v-16h2v16H338.4z"/>
	<path d="M354.8,260.8c-1.1,0-2.1-0.2-3.1-0.7c-0.9-0.5-1.7-1.1-2.4-1.8c-0.7-0.8-1.2-1.6-1.5-2.6c-0.4-1-0.5-2-0.5-3
		c0-1.1,0.2-2.1,0.6-3c0.4-1,0.9-1.8,1.6-2.6c0.7-0.8,1.5-1.4,2.4-1.8s1.9-0.7,3-0.7c1.1,0,2.1,0.2,3.1,0.7c0.9,0.5,1.7,1.1,2.4,1.9
		s1.2,1.7,1.5,2.6c0.4,1,0.5,1.9,0.5,2.9c0,1.1-0.2,2.1-0.6,3c-0.4,1-0.9,1.8-1.6,2.6c-0.7,0.8-1.5,1.4-2.4,1.8
		C356.9,260.6,355.9,260.8,354.8,260.8z M349.4,252.7c0,0.8,0.1,1.6,0.4,2.4c0.3,0.8,0.6,1.4,1.1,2c0.5,0.6,1.1,1,1.7,1.4
		c0.7,0.3,1.4,0.5,2.2,0.5c0.9,0,1.6-0.2,2.3-0.5s1.2-0.8,1.7-1.4c0.5-0.6,0.8-1.3,1.1-2s0.4-1.5,0.4-2.3c0-0.8-0.1-1.6-0.4-2.3
		c-0.3-0.8-0.6-1.4-1.1-2c-0.5-0.6-1.1-1.1-1.7-1.4c-0.7-0.3-1.4-0.5-2.2-0.5c-0.9,0-1.6,0.2-2.3,0.5c-0.7,0.4-1.2,0.8-1.7,1.4
		c-0.5,0.6-0.8,1.3-1.1,2C349.5,251.2,349.4,251.9,349.4,252.7z"/>
	<path d="M371.2,248.5v12.2h-2v-16h1.7l9.8,12.5v-12.5h2v16h-1.8L371.2,248.5z"/>
	<path d="M395.5,244.7h1.7l6.5,16h-2.2l-1.8-4.7h-6.9l-1.8,4.7h-2.2L395.5,244.7z M399.1,254.4l-2.8-7.4l-2.8,7.4H399.1z"/>
	<path d="M409.9,260.7v-16h2v14.2h8.9v1.8H409.9z"/>
	<path d="M436.1,260.7v-16h6.8c0.7,0,1.3,0.1,1.9,0.4c0.6,0.3,1.1,0.7,1.5,1.2c0.4,0.5,0.8,1,1,1.6c0.2,0.6,0.4,1.2,0.4,1.9
		c0,0.7-0.1,1.4-0.4,2.1c-0.3,0.7-0.7,1.2-1.2,1.7c-0.5,0.5-1.1,0.8-1.8,1l3.9,6.1H446l-3.6-5.7h-4.2v5.7H436.1z M438.2,253.2h4.8
		c0.6,0,1-0.2,1.5-0.5c0.4-0.3,0.7-0.7,1-1.2s0.3-1.1,0.3-1.6c0-0.6-0.1-1.2-0.4-1.7c-0.3-0.5-0.6-0.9-1.1-1.2
		c-0.4-0.3-0.9-0.5-1.4-0.5h-4.7V253.2z"/>
	<path d="M465.8,258.9v1.8H455v-16h10.6v1.8H457v5.2h7.5v1.7H457v5.5H465.8z"/>
	<path d="M477.5,244.7h1.7l6.5,16h-2.2l-1.8-4.7h-6.9l-1.8,4.7h-2.2L477.5,244.7z M481.2,254.4l-2.8-7.4l-2.8,7.4H481.2z"/>
	<path d="M491.9,260.7v-16h2v14.2h8.9v1.8H491.9z"/>
	<path d="M518.2,246.5h-5.5v14.2h-2v-14.2h-5.5v-1.8h13V246.5z"/>
	<path d="M525.1,244.7l4.8,8.3l4.9-8.3h2.2l-6.1,10.1v5.8h-2v-5.9l-6.1-10.1H525.1z"/>
</g>
<g>
	<rect x="720.6" y="103.9" width="1.2" height="158.1"/>
</g>
<g>
	<path d="M887.5,176.1c0,8.2-3.1,15.2-9.4,20.9c-6.2,5.8-13.8,8.7-22.5,8.7c-5.1,0-11.3-1.6-18.4-4.7c-1.9-0.9-3.3-1.3-4.3-1.3
		c-1.1,0-1.9,1.3-2.1,4c-0.1,1.4-0.7,2-1.9,2c-1,0-1.4-0.6-1.4-1.7c0-0.8,0-1.3,0.1-1.7c0.8-5.8,1.1-11.2,1.1-16.2
		c0-1-0.1-3.6-0.3-8c-0.1-0.6-0.1-1.3-0.1-2.3c0-1.4,0.6-2.1,1.7-2.1c1,0,1.6,1.2,2,3.5c2.5,17.1,10.5,25.7,24.2,25.7
		c5.8,0,10.3-1.6,13.5-4.9c3.2-3.3,4.8-7.9,4.8-13.9c0-5.3-1.6-9.9-4.6-13.7c-3.1-3.8-8.4-7.5-15.9-11.2c-9.1-4.5-15.3-8.8-18.9-13
		c-3.5-4.2-5.3-9.4-5.3-15.6c0-7.9,2.5-14.4,7.7-19.6c5.1-5.1,11.6-7.7,19.4-7.7c3.2,0,7.7,1.1,13.4,3.3c2,0.8,3.5,1.1,4.4,1.1
		c1,0,1.7-0.2,2.1-0.6c0.3-0.4,0.6-1.4,0.9-3c0.2-1,0.7-1.4,1.6-1.4c1,0,1.4,0.6,1.4,1.7c0,0.8,0,1.3-0.1,1.7
		c-0.3,2.3-0.4,5.1-0.4,8.3c0,4.6,0.2,8.2,0.7,10.9l0.1,2.3c0.1,1-0.3,1.6-1.3,1.6c-1.1,0-1.8-1.1-2.1-3.3c-1-5.6-3.5-10.3-7.4-14.1
		c-3.9-3.8-8.3-5.6-13.2-5.6c-4.8,0-8.6,1.5-11.4,4.6c-2.8,3.1-4.2,7.2-4.2,12.4c0,6.1,2,11,6.1,14.7c2.3,2.1,7.2,5.1,14.9,8.9
		c9,4.5,15.4,9,19.3,13.7C885.6,164.9,887.5,170.2,887.5,176.1z"/>
	<path d="M950.2,197.5c0,1.6-1.7,3.3-5.1,5.1c-3.4,1.8-6.6,2.6-9.7,2.6c-6.5,0-10-3.4-10.2-10.2c-3.6,7.1-9.2,10.6-16.8,10.6
		c-4.1,0-7.4-1.2-10.1-3.6c-2.7-2.4-4-5.6-4-9.4c0-7.8,4.7-14,14-18.6c3.2-1.5,8.8-3,16.7-4.6v-3.6c0-8.4-0.4-13.9-1.3-16.6
		c-1.5-4.9-5-7.3-10.3-7.3c-3.3,0-6.1,0.9-8.4,2.7c-2.2,1.8-3.4,4.1-3.4,6.9c0,0.8,0.6,1.1,1.7,1.1c1.2,0,2.2,0.6,3.1,1.7
		c0.9,1.1,1.4,2.4,1.4,3.9c0,4.2-2.1,6.3-6.2,6.3c-2.2,0-4-0.7-5.4-2.2c-1.4-1.5-2.1-3.4-2.1-5.6c0-4.5,1.8-8.3,5.3-11.6
		c3.9-3.5,9.3-5.3,16.3-5.3c10.5,0,16.9,2.9,19.3,8.6c0.9,2.2,1.3,6.5,1.3,13v26.7c0,4.4,0,7,0.1,7.7c0.5,3.4,1.9,5.1,4.1,5.1
		c2.7,0,4.9-1,6.6-2.9c1-1,1.7-1.6,2.1-1.6C949.9,196.7,950.2,196.9,950.2,197.5z M925,182.4v-10.4c-7,1.6-12.1,3.7-15.2,6.4
		c-3.1,2.6-4.6,6.1-4.6,10.5c0,3.1,0.9,5.6,2.6,7.5c1.7,2,3.9,2.9,6.6,2.9c4,0,7.3-2.3,9.7-6.9C924.7,191.3,925,188,925,182.4z"/>
	<path d="M977.3,203.1c0,0.9-0.8,1.3-2.4,1.3c0.1,0-1-0.1-3.4-0.3c-2.9-0.2-5.2-0.3-7.2-0.3h-14.9c-0.5,0.4-1,0.6-1.7,0.6
		c-1,0-1.6-0.4-1.6-1.1c0-1,1-1.5,2.9-1.5c3.6-0.1,5.6-0.4,5.9-0.8c0.3-0.4,0.5-2.4,0.5-5.9v-43.3c-0.1-2.4-0.2-3.8-0.4-4.2
		c-0.1-0.4-0.7-0.6-1.8-0.6h-4.1c-0.4,0-0.9,0-1.4,0c-1,0-1.6-0.3-1.6-1c0-0.6,0.8-0.9,2.4-1c6.3-0.3,11.7-1.8,16.2-4.5l1.4-0.8
		c0.8,1.4,1.1,4,1.1,7.8c0-0.2,0,0.3,0,1.4c0,1.1,0,3,0,5.6v38.9c0,3.8,0.1,6,0.2,6.7c0.1,0.7,0.6,1.1,1.5,1.3
		c1.4,0.4,3.5,0.6,6.3,0.6C976.7,201.9,977.3,202.3,977.3,203.1z M966.6,114c0,4.3-2.1,6.4-6.4,6.4c-1.8,0-3.3-0.6-4.6-1.8
		c-1.2-1.2-1.9-2.6-1.9-4.4c0-4.5,2.1-6.7,6.4-6.7S966.6,109.7,966.6,114z"/>
	<path d="M1045.1,203.2c0,0.7-0.7,1.1-2.1,1.1h-1.7c-1.7,0-4.1,0-7,0c-9.3,0-14.9,0-16.6,0h-1c-1.2,0-1.9-0.3-1.9-1
		c0-0.5,0.3-0.8,0.8-0.9c0.5-0.1,2.4-0.2,5.5-0.3c1.8-0.1,2.9-0.4,3.1-0.8c0.3-0.4,0.4-2,0.4-4.6v-27.4c0-10.4-0.4-16.5-1.1-18.5
		c-1.6-4.3-4.9-6.4-9.7-6.4c-4.8,0-8.8,2.1-12,6.3c-1,1.2-1.4,2.9-1.4,5.1v44.5c0,1.1,1,1.8,3.1,1.9l4.4,0.1c1,0,1.5,0.3,1.5,1
		s-0.6,1-1.7,1h-2.3c-2.1,0-5.4,0-10,0c-1.1,0-3.3,0-6.8,0c-3.5,0-5.5,0-6.1,0h-0.9c-1.4,0-2.1-0.3-2.1-0.9c0-0.6,0.9-1,2.6-1.1
		c1.2,0,2.4,0,3.6,0c1.4,0,2.3-0.3,2.6-1l0.4-2.1V168c0-10.8-0.1-16.8-0.3-18c-0.2-1.1-1.4-1.7-3.6-1.7c-0.7,0-1.8,0-3.4,0h-0.7
		c-1.9,0-2.9-0.4-2.9-1.1c0-0.9,1-1.4,3-1.4c2.9-0.1,6-0.6,9.3-1.6c3.3-1,5.7-2,7-3.3c0.9-0.8,1.5-1.1,2-1.1c0.7,0,1,0.9,1,2.7v6.9
		c5-6.4,11.3-9.6,19.2-9.6c6.9,0,11.8,2.5,14.9,7.6c1.7,2.9,2.6,8.3,2.6,16.3v32.6c0,3.1,0.1,4.7,0.4,5c0.6,0.6,2,0.9,4.1,0.9
		c0.3,0,0.8,0,1.6,0h1C1044.7,202.2,1045.1,202.5,1045.1,203.2z"/>
	<path d="M1086.2,195.5c0,0.9-1.2,2.4-3.6,4.6c-4.1,3.7-9,5.6-14.6,5.6c-5.2,0-9.2-1.3-11.9-4c-1.5-1.5-2.3-6-2.3-13.4v-42.5
		c-0.1-0.9-0.6-1.5-1.6-1.6h-5.4c-2.1,0-3.1-0.3-3.1-1c0-0.7,0.5-1,1.6-1.1c7.4-0.7,13.2-4.3,17.3-11c0.6-0.9,1.3-1.3,2.1-1.3
		c0.7,0,1,0.3,1,1v0.6c0,0.5,0,1.3,0,2.4c0,4,0.2,6.6,0.6,7.7c0.9,0.2,2.3,0.3,4.3,0.3c5.2,0,8.7-0.2,10.4-0.7
		c0.4-0.1,0.7-0.1,1-0.1c0.8,0,1.1,0.4,1.1,1.2c0,1.4-3.9,2.1-11.6,2.1c-1.3,0-3.3,0-5.9,0v26.5c0,13.3,0.3,21.7,1,25.1
		c0.7,3.4,2.9,5.1,6.6,5.1c3.1,0,6.7-1.8,10.6-5.3c0.4-0.5,0.8-0.7,1.3-0.7C1085.8,194.8,1086.2,195,1086.2,195.5z"/>
	<path d="M1175.5,128.4c0,9.2-4,16.4-11.9,21.6c-5,3.2-11.2,4.9-18.9,4.9c-3.2,0-6.9-0.3-11-1v40.6c0,2.2,0.1,3.6,0.3,4.1
		c0.5,1.3,1.5,2.1,3.1,2.4c2.8,0.4,5.4,0.6,8,0.6c1,0,1.6,0.3,1.6,1c0,1-0.7,1.4-2,1.4c-0.6,0-1,0-1.4,0c-5.2,0-15.1,0-29.6,0h-1.9
		c-2.9,0-4.3-0.5-4.3-1.4c0-0.7,1-1,3-1c4.5,0,7.1-0.4,7.7-1.3c0.8-0.4,1.2-1.3,1.3-2.9V113c0-3-0.8-4.8-2.4-5.4
		c-1-0.4-2.6-0.6-5-0.6h-1.4c-0.3,0-0.6,0-1,0c-1.4,0-2.1-0.4-2.1-1.2c0-0.9,1.3-1.3,4-1.3h31.5c10.9,0,18.8,1.9,23.9,5.7
		C1172.7,114.6,1175.5,120.6,1175.5,128.4z M1160.5,128.6c0-14.4-6-21.6-18-21.6c-4,0-6.6,0.7-7.9,2c-0.6,0.6-0.9,2.1-0.9,4.5v38.3
		c0.8,0.1,1.6,0.1,2.6,0.1c6.3,0,11.6-1.4,16-4.2C1157.8,144.3,1160.5,137.9,1160.5,128.6z"/>
	<path d="M1225.7,188.4c0,1-0.7,2.6-2.2,5.1c-1.5,2.4-3,4.4-4.5,5.9c-4.1,4.2-9.6,6.3-16.4,6.3c-8.6,0-15.8-3.1-21.5-9.3
		c-5.8-6.2-8.7-13.9-8.7-23c0-9.5,2.7-17.5,8.2-23.9c5.5-6.4,12.3-9.6,20.5-9.6c6.8,0,12.4,2,17,5.9c4.6,4,7,9,7.3,15.2
		c-3.1,0.5-7.1,0.7-12.2,0.6h-10c-0.7,0-6.4,0.1-17.2,0.4c-0.5,3.1-0.7,6.1-0.7,9c0,9.6,1.8,17,5.5,22.2c3.7,5.2,8.8,7.8,15.5,7.8
		c3.8,0,6.9-0.9,9.2-2.6s4.8-5,7.4-9.9c0.4-0.8,0.9-1.1,1.6-1.1C1225.4,187.4,1225.7,187.7,1225.7,188.4z M1213.3,159.2
		c-0.4-11.4-4.5-17.2-12.3-17.2c-7.7,0-12.5,5.7-14.4,17.2H1213.3z"/>
	<path d="M1267.6,195.5c0,0.9-1.2,2.4-3.6,4.6c-4.1,3.7-9,5.6-14.6,5.6c-5.2,0-9.2-1.3-11.9-4c-1.5-1.5-2.3-6-2.3-13.4v-42.5
		c-0.1-0.9-0.6-1.5-1.6-1.6h-5.4c-2.1,0-3.1-0.3-3.1-1c0-0.7,0.5-1,1.6-1.1c7.4-0.7,13.2-4.3,17.3-11c0.6-0.9,1.3-1.3,2.1-1.3
		c0.7,0,1,0.3,1,1v0.6c0,0.5,0,1.3,0,2.4c0,4,0.2,6.6,0.6,7.7c0.9,0.2,2.3,0.3,4.3,0.3c5.2,0,8.7-0.2,10.4-0.7
		c0.4-0.1,0.7-0.1,1-0.1c0.8,0,1.1,0.4,1.1,1.2c0,1.4-3.9,2.1-11.6,2.1c-1.3,0-3.3,0-5.9,0v26.5c0,13.3,0.3,21.7,1,25.1
		c0.7,3.4,2.9,5.1,6.6,5.1c3.1,0,6.7-1.8,10.6-5.3c0.4-0.5,0.8-0.7,1.3-0.7C1267.3,194.8,1267.6,195,1267.6,195.5z"/>
	<path d="M1319.7,188.4c0,1-0.7,2.6-2.2,5.1c-1.5,2.4-3,4.4-4.5,5.9c-4.1,4.2-9.6,6.3-16.4,6.3c-8.6,0-15.8-3.1-21.5-9.3
		c-5.8-6.2-8.7-13.9-8.7-23c0-9.5,2.7-17.5,8.2-23.9c5.5-6.4,12.3-9.6,20.5-9.6c6.8,0,12.4,2,17,5.9c4.6,4,7,9,7.3,15.2
		c-3.1,0.5-7.1,0.7-12.2,0.6h-10c-0.7,0-6.4,0.1-17.2,0.4c-0.5,3.1-0.7,6.1-0.7,9c0,9.6,1.8,17,5.5,22.2c3.7,5.2,8.8,7.8,15.5,7.8
		c3.8,0,6.9-0.9,9.2-2.6s4.8-5,7.4-9.9c0.4-0.8,0.9-1.1,1.6-1.1C1319.3,187.4,1319.7,187.7,1319.7,188.4z M1307.2,159.2
		c-0.4-11.4-4.5-17.2-12.3-17.2c-7.7,0-12.5,5.7-14.4,17.2H1307.2z"/>
	<path d="M1368.7,149.9c0,2.2-0.7,4-2,5.4c-1.3,1.4-3.1,2.1-5.1,2.1c-1.7,0-3.1-0.5-4.3-1.5s-1.7-2.3-1.7-3.8c0-1.3,0.4-2.5,1.3-3.4
		c0.9-1,1.3-1.6,1.3-2c0-1.4-1.1-2.1-3.1-2.1c-2.7,0-5,1.7-6.9,5c-2.2,3.9-3.3,11.1-3.3,21.6v28.2c0,1.1,0.4,1.8,1.2,2.1
		c0.8,0.3,3.3,0.5,7.4,0.6c1,0.2,1.6,0.6,1.6,1.1c0,0.7-0.6,1-1.9,1c-2.2,0-4.2,0-6.1,0c-1.9,0-5.5,0-10.9,0c-2.8,0-4.8,0-6,0
		c-1.2,0-2.8,0-4.7,0c-1.5,0-2.3-0.3-2.3-0.9s0.6-0.9,1.9-0.9h2c3.2,0,5.1-0.4,5.7-1.2c0.2-0.4,0.3-2.2,0.3-5.3v-39.5
		c0-5.3-0.8-8.3-2.4-9.1c-1.6-0.8-4.1-1.3-7.5-1.4c-1.1,0-1.7-0.3-1.7-1c0-0.7,0.5-1,1.4-1h1c1.4,0,2.9,0.1,4.3,0.2s2,0.2,1.9,0.2
		c3.5,0,7.4-1,11.7-3l1.9-0.9l1.1-0.4c0.4,2.3,0.6,4.6,0.6,6.9v2.9c3-6.5,7.3-9.7,12.9-9.7c3,0,5.6,0.9,7.6,2.8
		C1367.7,144.8,1368.7,147.1,1368.7,149.9z"/>
	<path d="M1414.5,185.7c0,5.5-2,10.2-6,14.1c-4,3.9-8.8,5.8-14.4,5.8c-3.2,0-7.1-1.1-11.8-3.4c-1.2-0.7-2.3-1-3.3-1
		c-1.3,0-2.3,0.9-3,2.7c-0.4,1.1-0.9,1.7-1.6,1.7c-0.7,0-1-0.4-1-1.1c0-0.5,0-1,0-1.7c0-1.9,0-4.7,0-8.4c0-0.3,0-1.4,0-3.4
		s0-3.3,0-4v-1.6c0-1,0.3-1.6,1-1.6c0.8,0,1.2,0.5,1.3,1.6c0.6,4.4,1.8,7.9,3.7,10.4c3.8,5,8.9,7.5,15.3,7.5c3.4,0,6.2-1,8.3-3
		c2.1-2,3.1-4.7,3.1-8c0-3.7-1.2-6.7-3.6-8.9c-1.3-1.2-2.6-2.1-3.6-2.7c-1.1-0.5-4.3-1.8-9.7-3.8c-10.6-4-15.9-10-15.9-18.1
		c0-5.3,1.8-9.8,5.4-13.5s8-5.4,13.3-5.4c1.9,0,4.7,0.6,8.5,1.7c0.9,0.3,1.8,0.4,2.6,0.4c2,0,3.2-1,3.7-2.9c0.3-1,0.7-1.4,1.3-1.4
		c0.7,0,1,0.4,1,1.1c0,0.1,0,0.4,0,0.9v6c-0.1,2.3,0.1,6,0.7,11v0.3c0,0.8-0.4,1.1-1.1,1.1c-0.6,0-1.3-1.4-2.1-4.3
		c-1-3.5-2.9-6.3-5.5-8.4c-2.6-2.1-5.6-3.2-9.1-3.2c-3.2,0-5.9,1-8,3c-2.1,2-3.1,4.5-3.1,7.6c0,4.8,3.2,8.4,9.6,10.9
		c9.9,3.9,16.2,7.2,18.9,9.7C1412.8,176.9,1414.5,181,1414.5,185.7z"/>
	<path d="M1479.8,169.9c0,9.9-3,18.4-9,25.3c-6,7-13.3,10.4-21.7,10.4c-3,0-6.1-0.6-9.3-1.9c-3.2-1.2-5.4-1.9-6.6-1.9
		c-1,0-2.2,0.5-3.6,1.4c-1.3,0.9-2.3,1.4-3,1.4c-0.8,0-1.1-1.6-1.1-4.7v-74.4c0-9.6-0.6-14.8-1.9-15.6c-0.5-0.3-2.3-0.4-5.6-0.4
		c-2.3,0-3.4-0.4-3.4-1.1c0-0.7,0.5-1,1.6-1h2c5.2,0,10.3-1.1,15.2-3.3c1.4-0.7,2.4-1,3-1h0.6V148c3.6-5.4,9.1-8.2,16.3-8.2
		c8,0,14.4,2.7,19.3,8.2C1477.4,153.6,1479.8,160.9,1479.8,169.9z M1466.8,170.6c0-8.9-1.4-15.8-4.2-20.7c-2.8-4.9-6.8-7.3-11.9-7.3
		c-2.7,0-5.2,0.8-7.6,2.5c-2.4,1.7-4,3.7-4.9,6.2c-0.9,2.5-1.3,10-1.3,22.5c0,13.1,0.3,20.9,1,23.4c1.1,4,4.6,6,10.5,6
		c5.7,0,9.8-2.1,12.5-6.4C1464.9,190.4,1466.8,181.7,1466.8,170.6z"/>
	<path d="M1552.6,199.1c0,0.7-1.1,1-3.1,1.1c-7.4,0.5-14,2.1-19.6,4.9c-0.4,0.2-0.7,0.3-1,0.3c-0.6,0-0.9-0.4-0.9-1.1v-8
		c-4.4,6.1-10.5,9.2-18.3,9.2c-7,0-12-2-15-6.1c-1.2-1.7-2-3.3-2.2-4.7c-0.2-1.4-0.4-5.3-0.4-11.5v-32.5c0-3.3-0.2-5.3-0.6-5.8
		c-0.4-0.6-1.7-0.9-3.9-1h-1.9c-2.6,0.2-3.9-0.2-3.9-1.1c0-0.7,0.8-1,2.4-1c1.7,0,4.2,0.1,7.4,0.4c1.6,0.1,2.6,0.2,2.9,0.2
		c3.3,0,6.4-0.2,9.3-0.6v39.7c0,7.3,0.5,12.1,1.4,14.5c1.5,3.7,4.6,5.5,9.3,5.5c5.1,0,8.8-2.1,11.2-6.3c1.7-3,2.6-7.9,2.6-14.5
		v-22.1c0-3.2-0.1-5.6-0.4-7.3v-4.7c-0.1-1.4-0.4-2.3-0.9-2.5c-0.5-0.2-1.6-0.4-3.2-0.4c-4,0.1-6-0.3-6-1.3c0-0.6,1-0.9,3-0.9h1.3
		c0.8,0,3.3,0,7.6,0c5.7,0,9.2,0,10.6,0v39.9c0,6.9,0.1,11.2,0.4,13c0.3,1.8,1,2.9,2.2,3.1c1.2,0.3,3.8,0.4,8,0.4
		C1552.1,198.1,1552.6,198.4,1552.6,199.1z"/>
	<path d="M1596.7,149.9c0,2.2-0.7,4-2,5.4c-1.3,1.4-3.1,2.1-5.1,2.1c-1.7,0-3.1-0.5-4.3-1.5s-1.7-2.3-1.7-3.8c0-1.3,0.4-2.5,1.3-3.4
		c0.9-1,1.3-1.6,1.3-2c0-1.4-1.1-2.1-3.1-2.1c-2.7,0-5,1.7-6.9,5c-2.2,3.9-3.3,11.1-3.3,21.6v28.2c0,1.1,0.4,1.8,1.2,2.1
		c0.8,0.3,3.3,0.5,7.4,0.6c1,0.2,1.6,0.6,1.6,1.1c0,0.7-0.6,1-1.9,1c-2.2,0-4.2,0-6.1,0c-1.9,0-5.5,0-10.9,0c-2.8,0-4.8,0-6,0
		c-1.2,0-2.8,0-4.7,0c-1.5,0-2.3-0.3-2.3-0.9s0.6-0.9,1.9-0.9h2c3.2,0,5.1-0.4,5.7-1.2c0.2-0.4,0.3-2.2,0.3-5.3v-39.5
		c0-5.3-0.8-8.3-2.4-9.1c-1.6-0.8-4.1-1.3-7.5-1.4c-1.1,0-1.7-0.3-1.7-1c0-0.7,0.5-1,1.4-1h1c1.4,0,2.9,0.1,4.3,0.2s2,0.2,1.9,0.2
		c3.5,0,7.4-1,11.7-3l1.9-0.9l1.1-0.4c0.4,2.3,0.6,4.6,0.6,6.9v2.9c3-6.5,7.3-9.7,12.9-9.7c3,0,5.6,0.9,7.6,2.8
		C1595.7,144.8,1596.7,147.1,1596.7,149.9z"/>
	<path d="M1663.3,148.3c0,4.4-2,6.6-5.9,6.6c-1.3,0-2.6-0.5-3.6-1.4c-1.1-0.9-1.6-1.9-1.6-3.1c0-0.4,0.1-1,0.4-1.8
		c0.3-0.8,0.4-1.5,0.4-1.9c0-1.2-0.7-1.9-2-1.9c-1.1,0-2.2,0.6-3.3,1.8c-1,1.2-1.6,2.4-1.6,3.6c0,0.3,0.2,1.9,0.7,4.9
		c0.5,3,0.7,5.2,0.7,6.7c0,6.5-2.2,11.9-6.7,16.3c-4.5,4.4-10.1,6.6-16.7,6.6c-1.7,0-4.9-0.7-9.4-2.1c-1.2-0.4-2.1-0.6-2.4-0.6
		c-2,0-3.8,0.8-5.4,2.4c-1.6,1.6-2.4,3.4-2.4,5.3c0,5,3,7.4,9,7.4c2.3,0,6-0.4,11-1.3c3.9-0.7,7.5-1,10.7-1c5.8,0,10.4,1.5,13.7,4.6
		c3.3,3.1,4.9,7.3,4.9,12.7c0,8.2-3.5,15-10.5,20.4c-7,5.4-15.9,8.2-26.5,8.2c-7.9,0-14.1-1.6-18.7-4.8c-4.5-3.2-6.8-7.6-6.8-13.2
		c0-5.4,2.1-9.5,6.3-12.3c2.1-1.3,5.4-2.5,10-3.6c-6.8-2.7-10.2-6.8-10.2-12.3c0-6.9,4.4-11.6,13.2-14.3c-5.7-4.5-8.6-10.4-8.6-17.7
		c0-6.9,2.2-12.4,6.6-16.5c4.4-4.1,10.2-6.2,17.3-6.2c3.9,0,7.1,0.5,9.5,1.6c2.4,1.1,5.3,3.1,8.5,6.3c3-4.5,6.8-6.7,11.3-6.7
		C1660.6,141,1663.3,143.5,1663.3,148.3z M1647.7,217.2c0-7.9-4.7-11.9-14-11.9c-2.7,0-6.6,0.4-11.8,1.3c-5.2,0.9-9.1,1.3-11.6,1.3
		c-4.8,2.6-7.3,7.1-7.3,13.6c0,4.9,1.7,8.8,5.2,11.7c3.5,3,8.1,4.4,13.8,4.4c7.2,0,13.3-2,18.2-5.9
		C1645.3,227.8,1647.7,223,1647.7,217.2z M1636.7,162.5c0-13.8-3.8-20.7-11.4-20.7c-7.4,0-11.2,6.4-11.2,19.3
		c0,14.5,4,21.7,11.9,21.7C1633.1,182.8,1636.7,176,1636.7,162.5z"/>
</g>
<rect class="st0" width="1765.8" height="363.1"/>
</svg>
